<svg width="25" height="25" viewBox="0 0 25 25" fill="none" xmlns="http://www.w3.org/2000/svg">
<path fill-rule="evenodd" clip-rule="evenodd" d="M9.03544 4H8H6C5.44772 4 5 4.44772 5 5C5 5.55228 5.44772 6 6 6V20C6 21.1046 6.89543 22 8 22H17C18.1046 22 19 21.1046 19 20V6C19.5523 6 20 5.55228 20 5C20 4.44772 19.5523 4 19 4H17H15.9646C15.7219 2.30385 14.2632 1 12.5 1C10.7368 1 9.27806 2.30385 9.03544 4ZM13.9146 4C13.7087 3.4174 13.1531 3 12.5 3C11.8469 3 11.2913 3.4174 11.0854 4H13.9146ZM8 20V6H17V20L8 20ZM9.5 8H11.5V18H9.5V8ZM15.5 8H13.5V18H15.5V8Z" fill="#999999"/>
</svg>
