<svg width="25" height="25" viewBox="0 0 25 25" fill="none" xmlns="http://www.w3.org/2000/svg">
<path d="M23.2992 12.0247C23.5495 12.3038 23.5495 12.6962 23.2992 12.9753C22.3898 13.9893 20.8681 15.5122 18.9636 16.7754C17.0528 18.0428 14.8307 19 12.5 19C10.1693 19 7.94723 18.0428 6.03645 16.7754C4.13194 15.5122 2.61016 13.9893 1.70083 12.9753L0.956358 13.643L1.70083 12.9753C1.45048 12.6962 1.45048 12.3038 1.70083 12.0247C2.61016 11.0107 4.13194 9.48779 6.03645 8.22456C7.94723 6.95717 10.1693 6 12.5 6C14.8307 6 17.0528 6.95717 18.9636 8.22456C20.8681 9.48779 22.3898 11.0107 23.2992 12.0247Z" stroke="#999999" stroke-width="2"/>
<circle cx="12.5" cy="12.5" r="2.5" stroke="#999999" stroke-width="2"/>
</svg>
